<svg width="263" height="263" viewBox="0 0 263 263" fill="none" xmlns="http://www.w3.org/2000/svg">
<path d="M262.2 131.1C262.2 203.505 203.505 262.2 131.1 262.2C58.6955 262.2 0 203.505 0 131.1C0 58.6955 58.6955 0 131.1 0C203.505 0 262.2 58.6955 262.2 131.1Z" fill="#B0907A"/>
<path d="M215.717 168.547C217.352 168.547 218.61 169.302 219.491 170.811C220.497 172.321 221 174.396 221 177.038C221 181.943 219.805 185.843 217.415 188.736C211.377 196.031 205.277 201.692 199.113 205.717C192.95 209.616 185.654 211.566 177.226 211.566C169.05 211.566 162.069 209.365 156.283 204.962C150.623 200.56 145.214 193.013 140.057 182.321C135.906 173.767 132.635 167.478 130.245 163.453C127.855 159.302 125.465 156.346 123.075 154.585C120.811 152.824 117.981 151.755 114.585 151.377C114.082 154.019 112.635 162.321 110.245 176.283C109.239 182.572 108.61 186.409 108.358 187.792C107.101 195.465 104.585 201.377 100.811 205.528C97.0377 209.553 91.3145 211.566 83.6415 211.566C75.2138 211.566 67.7296 209.113 61.1887 204.208C54.7736 199.176 49.805 192.258 46.283 183.453C42.761 174.522 41 164.396 41 153.075C41 131.943 44.6478 113.704 51.9434 98.3585C59.3648 83.0126 69.6792 71.3145 82.8868 63.2642C96.2201 55.0881 111.566 51 128.925 51C141 51 151.126 52.8239 159.302 56.4717C167.478 60.1195 173.516 65.1509 177.415 71.566C181.44 77.9811 183.453 85.2138 183.453 93.2641C183.453 100.308 181.755 107.226 178.359 114.019C175.088 120.686 170.12 126.597 163.453 131.755C156.786 136.912 148.673 140.748 139.113 143.264C145.151 144.899 149.805 147.541 153.075 151.189C156.346 154.836 159.616 160.182 162.887 167.226C166.409 174.774 169.868 180.308 173.264 183.83C176.786 187.352 180.811 189.113 185.34 189.113C189.365 189.113 193.201 187.792 196.849 185.151C200.497 182.384 205.088 177.73 210.623 171.189C212.132 169.428 213.83 168.547 215.717 168.547ZM88.5472 151.189C84.2704 151.189 81.3145 150.182 79.6792 148.17C78.1698 146.157 77.4151 143.893 77.4151 141.377C77.4151 138.358 78.3585 135.969 80.2453 134.208C82.2579 132.447 84.522 131.566 87.0377 131.566H91.7547C93.7673 119.239 95.6541 108.61 97.4151 99.6793C99.0503 91.5031 104.333 87.4151 113.264 87.4151C120.434 87.4151 124.019 90.6226 124.019 97.0377C124.019 98.4214 123.956 99.4906 123.83 100.245L118.17 131.566C124.962 131.189 131.126 129.553 136.66 126.66C142.321 123.767 146.786 119.742 150.057 114.585C153.453 109.428 155.151 103.579 155.151 97.0377C155.151 89.1132 152.447 82.8868 147.038 78.3585C141.629 73.8302 133.704 71.566 123.264 71.566C110.937 71.566 100.119 74.6478 90.8113 80.8113C81.6289 86.849 74.4591 95.9057 69.3019 107.981C64.1447 119.931 61.566 134.522 61.566 151.755C61.566 159.805 62.3836 166.723 64.0189 172.509C65.6541 178.296 67.6667 182.635 70.0566 185.528C72.4465 188.421 74.7107 189.868 76.8491 189.868C78.4843 189.868 79.805 189.05 80.8113 187.415C81.9434 185.78 82.8239 183.138 83.4528 179.491L88.5472 151.189Z" fill="#403F3D"/>
</svg>
